<svg width="40" height="40" viewBox="0 0 40 40" fill="none" xmlns="http://www.w3.org/2000/svg">
<g id="fluent:person-support-16-regular">
<path id="Vector" d="M20 30C19.1267 30.0002 18.2808 29.6956 17.6081 29.1388C16.9353 28.582 16.478 27.8079 16.315 26.95C13.8617 26.1944 11.7017 24.6996 10.13 22.67C8.94222 21.1404 8.12606 19.3558 7.74592 17.4569C7.36578 15.558 7.43205 13.5967 7.9395 11.7278C8.44695 9.8589 9.38171 8.13344 10.67 6.68755C11.9584 5.24166 13.565 4.11489 15.3633 3.39611C17.1615 2.67733 19.1022 2.38621 21.0322 2.5457C22.9622 2.70519 24.8288 3.31094 26.4846 4.31516C28.1405 5.31939 29.5404 6.69461 30.5739 8.33237C31.6074 9.97013 32.2462 11.8256 32.44 13.7525C32.5075 14.44 31.94 15 31.25 15C30.56 15 30.0075 14.4375 29.925 13.7525C29.7019 11.9846 29.0104 10.3084 27.9221 8.89736C26.8339 7.48634 25.3883 6.39175 23.7351 5.72684C22.0818 5.06194 20.2809 4.85087 18.5187 5.11548C16.7565 5.3801 15.0971 6.11078 13.712 7.23193C12.327 8.35307 11.2667 9.82395 10.6408 11.4924C10.0149 13.1608 9.84625 14.9661 10.1522 16.7216C10.4582 18.4771 11.2277 20.1189 12.381 21.4773C13.5344 22.8356 15.0298 23.861 16.7125 24.4475C17.0306 23.8671 17.4967 23.3813 18.0633 23.0393C18.6299 22.6974 19.277 22.5115 19.9387 22.5005C20.6005 22.4895 21.2533 22.6539 21.831 22.9769C22.4086 23.2999 22.8905 23.77 23.2277 24.3395C23.5649 24.909 23.7454 25.5575 23.7508 26.2194C23.7562 26.8812 23.5863 27.5326 23.2585 28.1075C22.9307 28.6825 22.4565 29.1604 21.8842 29.4928C21.3119 29.8252 20.6618 30.0002 20 30ZM10 26.25V26.1825C9.31676 25.5699 8.69083 24.8963 8.13 24.17C7.71833 24.7855 7.49903 25.5095 7.5 26.25V27.5C7.5 32.4275 12.15 37.5 20 37.5C27.85 37.5 32.5 32.4275 32.5 27.5V26.25C32.5 25.2554 32.1049 24.3016 31.4017 23.5983C30.6984 22.8951 29.7446 22.5 28.75 22.5H25C25.5475 23.225 25.9375 24.075 26.125 25H28.75C29.0815 25 29.3995 25.1317 29.6339 25.3661C29.8683 25.6005 30 25.9185 30 26.25V27.5C30 31.095 26.42 35 20 35C13.58 35 10 31.095 10 27.5V26.25ZM20 20C18.5692 19.9979 17.1813 20.4888 16.07 21.39C14.9768 20.7205 14.0742 19.7811 13.449 18.662C12.8238 17.543 12.497 16.2819 12.5 15C12.5004 13.6924 12.8426 12.4077 13.4927 11.2732C14.1428 10.1387 15.0782 9.1939 16.2061 8.53247C17.334 7.87104 18.6153 7.51598 19.9227 7.50251C21.2302 7.48904 22.5185 7.81762 23.6598 8.45568C24.8011 9.09373 25.7558 10.0191 26.4291 11.1399C27.1025 12.2608 27.4711 13.5382 27.4984 14.8455C27.5257 16.1527 27.2107 17.4444 26.5848 18.5924C25.9589 19.7404 25.0437 20.7048 23.93 21.39C22.8187 20.4888 21.4308 19.9979 20 20ZM15 15C15 16.3261 15.5268 17.5978 16.4645 18.5355C17.4022 19.4732 18.6739 20 20 20C21.3261 20 22.5979 19.4732 23.5355 18.5355C24.4732 17.5978 25 16.3261 25 15C25 13.6739 24.4732 12.4021 23.5355 11.4645C22.5979 10.5268 21.3261 9.99999 20 9.99999C18.6739 9.99999 17.4022 10.5268 16.4645 11.4645C15.5268 12.4021 15 13.6739 15 15Z" fill="black"/>
</g>
</svg>
