<svg width="48" height="48" viewBox="0 0 48 48" fill="none" xmlns="http://www.w3.org/2000/svg">
<g id="gala:search">
<g id="galaSearch0">
<path id="galaSearch1" d="M16.7015 27.2309L3.91895 40.0134" stroke="black" stroke-width="2"/>
<path id="galaSearch2" d="M20.8637 31.3931L8.08118 44.1756" stroke="black" stroke-width="2"/>
<path id="galaSearch3" d="M8.08118 44.1756C7.52924 44.7276 6.78064 45.0377 6.00006 45.0377C5.21949 45.0377 4.47089 44.7276 3.91895 44.1756" stroke="black" stroke-width="2" stroke-linecap="round" stroke-linejoin="round"/>
<path id="galaSearch4" d="M3.91891 40.0134C3.36697 40.5654 3.05688 41.314 3.05688 42.0945C3.05688 42.8751 3.36697 43.6237 3.91891 44.1756" stroke="black" stroke-width="2" stroke-linecap="round" stroke-linejoin="round"/>
<path id="galaSearch5" d="M45.123 16.2157C45.123 17.955 44.7804 19.6772 44.1148 21.2841C43.4492 22.8909 42.4737 24.3509 41.2438 25.5808C40.014 26.8106 38.554 27.7862 36.9471 28.4518C35.3403 29.1173 33.6181 29.4599 31.8788 29.4599C30.1396 29.4599 28.4173 29.1173 26.8105 28.4517C25.2036 27.7862 23.7436 26.8106 22.5138 25.5808C21.2839 24.3509 20.3084 22.8909 19.6428 21.2841C18.9772 19.6772 18.6346 17.955 18.6346 16.2157C18.6346 12.7032 20.03 9.33446 22.5138 6.8507C24.9975 4.36694 28.3662 2.97157 31.8788 2.97157C33.6181 2.97157 35.3403 3.31414 36.9471 3.97972C38.554 4.64531 40.014 5.62086 41.2438 6.8507C42.4737 8.08053 43.4492 9.54056 44.1148 11.1474C44.7804 12.7543 45.123 14.4765 45.123 16.2157Z" stroke="black" stroke-width="2" stroke-linecap="round" stroke-linejoin="round"/>
<path id="galaSearch6" d="M16.7014 27.2309L20.8637 31.3931" stroke="black" stroke-width="2" stroke-linecap="round" stroke-linejoin="round"/>
<path id="galaSearch7" d="M18.7826 29.312L22.5138 25.5808" stroke="black" stroke-width="2" stroke-linecap="round" stroke-linejoin="round"/>
<path id="galaSearch8" d="M13.1487 30.7836L17.3109 34.9458" stroke="black" stroke-width="2" stroke-linecap="round" stroke-linejoin="round"/>
<path id="galaSearch9" d="M39.2367 16.2157C39.2367 18.1672 38.4614 20.0387 37.0816 21.4185C35.7017 22.7984 33.8302 23.5736 31.8788 23.5736" stroke="black" stroke-width="2" stroke-linecap="round" stroke-linejoin="round"/>
</g>
</g>
</svg>
