<svg width="48" height="48" viewBox="0 0 48 48" fill="none" xmlns="http://www.w3.org/2000/svg">
<g id="healthicons:register-book-outline">
<g id="Group">
<path id="Vector" d="M11.01 21.003C14.68 20.965 16.727 21.335 20.622 22.926L21.378 21.074C17.251 19.389 14.94 18.962 10.99 19.003L11.01 21.003ZM20.622 26.926C16.727 25.336 14.68 24.965 11.01 25.003L10.99 23.003C14.94 22.962 17.25 23.389 21.378 25.074L20.622 26.926ZM11.01 29.003C14.68 28.965 16.727 29.335 20.622 30.926L21.378 29.074C17.251 27.389 14.94 26.962 10.99 27.003L11.01 29.003ZM36.99 29.003C33.32 28.965 31.273 29.335 27.378 30.926L26.622 29.074C30.749 27.389 33.06 26.962 37.01 27.003L36.99 29.003ZM27.378 26.926C31.273 25.336 33.321 24.965 36.99 25.003L37.01 23.003C33.06 22.962 30.75 23.389 26.622 25.074L27.378 26.926ZM36.99 21.003C33.32 20.965 31.273 21.335 27.378 22.926L26.622 21.074C30.749 19.389 33.06 18.962 37.01 19.003L36.99 21.003ZM13.5 16V13H11.5V16H13.5ZM17 14V17H15V14H17ZM20.5 18V15H18.5V18H20.5ZM34.5 16V13H36.5V16H34.5ZM31 14V17H33V14H31ZM27.5 18V15H29.5V18H27.5Z" fill="black"/>
<path id="Vector_2" fill-rule="evenodd" clip-rule="evenodd" d="M24 11.24L24.258 11.185C29.254 8.77901 33.559 7.04901 39.526 8.57701C39.9495 8.68717 40.3242 8.9352 40.5911 9.28195C40.858 9.6287 41.0019 10.0544 41 10.492V10.773C41.72 10.918 42.466 11.083 43.243 11.271C43.4592 11.3235 43.6514 11.4473 43.7887 11.6223C43.926 11.7974 44.0005 12.0135 44 12.236V37.775C44 38.408 43.417 38.88 42.796 38.762C36.583 37.577 32.396 37.494 26.674 38.362C26.423 38.8555 26.0404 39.2699 25.5684 39.5593C25.0965 39.8488 24.5536 40.002 24 40.002C23.4464 40.002 22.9035 39.8488 22.4316 39.5593C21.9596 39.2699 21.577 38.8555 21.326 38.362C15.605 37.494 11.416 37.577 5.204 38.762C5.05807 38.7904 4.90767 38.7862 4.76352 38.7498C4.61937 38.7135 4.48502 38.6457 4.37004 38.5515C4.25507 38.4572 4.16229 38.3388 4.09833 38.2046C4.03437 38.0703 4.0008 37.9237 4 37.775V12.236C3.99937 12.0135 4.07373 11.7972 4.21107 11.6222C4.34841 11.4471 4.54073 11.3234 4.757 11.271C5.50141 11.0906 6.24921 10.9246 7 10.773V10.492C7 9.61201 7.583 8.80501 8.474 8.57701C14.441 7.04901 18.746 8.77901 23.742 11.185L24 11.24ZM25 13.047C29.98 10.643 33.734 9.16701 39 10.507V33.055C39 33.055 38.997 33.06 38.992 33.063C38.9848 33.0688 38.9764 33.073 38.9674 33.0752C38.9585 33.0775 38.9491 33.0777 38.94 33.076C34.04 32.178 30.259 33.113 26.145 34.902C25.8242 34.574 25.4325 34.324 25 34.171V13.047ZM23 13.048V34.171C22.5675 34.324 22.1758 34.574 21.855 34.902C17.741 33.112 13.959 32.178 9.06 33.076C9.05076 33.0779 9.04121 33.0777 9.03205 33.0754C9.02289 33.0732 9.01433 33.0689 9.007 33.063H9.006L9 33.054V10.507C14.266 9.16701 18.02 10.644 23 13.048ZM42 13.033C41.66 12.956 41.327 12.883 41 12.815V33.055C41 34.365 39.79 35.265 38.579 35.044C34.803 34.351 31.779 34.851 28.506 36.096C33.079 35.563 36.934 35.694 42 36.583V13.033ZM19.494 36.096C16.222 34.851 13.197 34.351 9.421 35.044C8.211 35.266 7 34.364 7 33.055V12.815C6.673 12.883 6.34 12.955 6 13.033V36.583C11.066 35.694 14.92 35.563 19.494 36.096Z" fill="black"/>
</g>
</g>
</svg>
