<svg width="40" height="40" viewBox="0 0 40 40" fill="none" xmlns="http://www.w3.org/2000/svg">
<g id="mingcute:settings-7-line" clip-path="url(#clip0_255_21)">
<g id="Group">
<path id="Vector" fill-rule="evenodd" clip-rule="evenodd" d="M20 3.33334C20.4421 3.33334 20.866 3.50894 21.1786 3.8215C21.4911 4.13406 21.6667 4.55798 21.6667 5.00001V6.77001C22.873 6.91981 24.053 7.235 25.1734 7.70668L26.0567 6.17668C26.1653 5.9856 26.3107 5.8179 26.4844 5.68323C26.6581 5.54856 26.8568 5.44958 27.0689 5.39199C27.281 5.3344 27.5024 5.31934 27.7204 5.34767C27.9384 5.376 28.1486 5.44717 28.3389 5.55707C28.5293 5.66697 28.696 5.81344 28.8295 5.98804C28.963 6.16265 29.0607 6.36193 29.1169 6.57443C29.1731 6.78693 29.1866 7.00844 29.1569 7.22622C29.1271 7.44399 29.0545 7.65373 28.9434 7.84334L28.0584 9.37668C29.025 10.11 29.8884 10.975 30.625 11.9433L32.1584 11.0567C32.348 10.9455 32.5577 10.873 32.7755 10.8432C32.9933 10.8134 33.2148 10.827 33.4273 10.8832C33.6398 10.9394 33.8391 11.037 34.0137 11.1705C34.1883 11.304 34.3347 11.4708 34.4446 11.6611C34.5545 11.8515 34.6257 12.0617 34.654 12.2797C34.6824 12.4976 34.6673 12.719 34.6097 12.9312C34.5521 13.1433 34.4532 13.3419 34.3185 13.5156C34.1838 13.6893 34.0161 13.8347 33.825 13.9433L32.2917 14.8267C32.7567 15.9283 33.0767 17.105 33.23 18.3333H35C35.4421 18.3333 35.866 18.5089 36.1786 18.8215C36.4911 19.1341 36.6667 19.558 36.6667 20C36.6667 20.442 36.4911 20.866 36.1786 21.1785C35.866 21.4911 35.4421 21.6667 35 21.6667H33.23C33.0802 22.873 32.765 24.053 32.2934 25.1733L33.8234 26.0567C34.0145 26.1653 34.1821 26.3107 34.3168 26.4844C34.4515 26.6581 34.5505 26.8567 34.6081 27.0689C34.6656 27.281 34.6807 27.5024 34.6524 27.7204C34.624 27.9383 34.5529 28.1485 34.443 28.3389C34.3331 28.5292 34.1866 28.696 34.012 28.8295C33.8374 28.963 33.6381 29.0607 33.4256 29.1168C33.2131 29.173 32.9916 29.1866 32.7738 29.1568C32.5561 29.1271 32.3463 29.0545 32.1567 28.9433L30.6234 28.0583C29.8881 29.0263 29.0247 29.8898 28.0567 30.625L28.9434 32.1583C29.0545 32.348 29.1271 32.5577 29.1569 32.7755C29.1866 32.9932 29.1731 33.2148 29.1169 33.4273C29.0607 33.6398 28.963 33.839 28.8295 34.0136C28.696 34.1882 28.5293 34.3347 28.3389 34.4446C28.1486 34.5545 27.9384 34.6257 27.7204 34.654C27.5024 34.6823 27.281 34.6673 27.0689 34.6097C26.8568 34.5521 26.6581 34.4531 26.4844 34.3185C26.3107 34.1838 26.1653 34.0161 26.0567 33.825L25.1734 32.2917C24.0532 32.7642 22.8732 33.08 21.6667 33.23V35C21.6667 35.442 21.4911 35.866 21.1786 36.1785C20.866 36.4911 20.4421 36.6667 20 36.6667C19.558 36.6667 19.1341 36.4911 18.8215 36.1785C18.509 35.866 18.3334 35.442 18.3334 35V33.23C17.127 33.0802 15.9471 32.765 14.8267 32.2933L13.9434 33.8233C13.8347 34.0144 13.6894 34.1821 13.5157 34.3168C13.342 34.4515 13.1433 34.5504 12.9312 34.608C12.7191 34.6656 12.4977 34.6807 12.2797 34.6523C12.0617 34.624 11.8515 34.5529 11.6612 34.4429C11.4708 34.333 11.3041 34.1866 11.1706 34.012C11.037 33.8374 10.9394 33.6381 10.8832 33.4256C10.827 33.2131 10.8134 32.9916 10.8432 32.7738C10.873 32.556 10.9455 32.3463 11.0567 32.1567L11.9417 30.6233C10.9738 29.8881 10.1103 29.0246 9.37504 28.0567L7.84171 28.9433C7.65209 29.0545 7.44236 29.1271 7.22458 29.1568C7.00681 29.1866 6.7853 29.173 6.5728 29.1168C6.3603 29.0607 6.16101 28.963 5.98641 28.8295C5.81181 28.696 5.66534 28.5292 5.55543 28.3389C5.44553 28.1485 5.37437 27.9383 5.34604 27.7204C5.31771 27.5024 5.33277 27.281 5.39036 27.0689C5.44795 26.8567 5.54693 26.6581 5.6816 26.4844C5.81626 26.3107 5.98396 26.1653 6.17504 26.0567L7.70837 25.1733C7.23557 24.0531 6.91927 22.8732 6.76837 21.6667H5.00004C4.55801 21.6667 4.13409 21.4911 3.82153 21.1785C3.50897 20.866 3.33337 20.442 3.33337 20C3.33337 19.558 3.50897 19.1341 3.82153 18.8215C4.13409 18.5089 4.55801 18.3333 5.00004 18.3333H6.77004C6.91984 17.127 7.23503 15.947 7.70671 14.8267L6.17671 13.9433C5.79703 13.7208 5.5208 13.357 5.40831 12.9315C5.29582 12.506 5.35619 12.0533 5.57625 11.6722C5.79631 11.291 6.1582 11.0124 6.58293 10.8971C7.00767 10.7818 7.46078 10.8391 7.84337 11.0567L9.37671 11.9417C10.11 10.975 10.975 10.1117 11.9434 9.37501L11.0567 7.84168C10.8392 7.45908 10.7818 7.00597 10.8971 6.58124C11.0124 6.1565 11.2911 5.79461 11.6722 5.57455C12.0534 5.35449 12.5061 5.29412 12.9316 5.40661C13.3571 5.51911 13.7208 5.79533 13.9434 6.17501L14.8267 7.70834C15.9469 7.23552 17.1269 6.91921 18.3334 6.76834V5.00001C18.3334 4.55798 18.509 4.13406 18.8215 3.8215C19.1341 3.50894 19.558 3.33334 20 3.33334ZM20 21.925L12.2934 26.375C13.0389 27.2728 13.9344 28.0347 14.94 28.6267L15.0617 28.6983C16.5666 29.5543 18.2687 30.003 20 30C21.6167 30 23.1434 29.6167 24.495 28.935L25.0617 28.6267C26.0675 28.0348 26.9626 27.2723 27.7067 26.3733L20 21.925ZM18.3334 10.1383C17.3457 10.304 16.3887 10.6181 15.495 11.07L15.0617 11.3033L14.94 11.3733C13.6162 12.1521 12.4884 13.224 11.6434 14.5067L11.3734 14.94L11.3034 15.0617C10.4469 16.5664 9.99764 18.2686 10 20C10 21.05 10.1617 22.0667 10.4634 23.0167L10.625 23.4883L18.3334 19.0383V10.1383ZM21.6667 10.1383V19.0383L29.375 23.4883C29.7898 22.3722 30.0015 21.1908 30 20C30 18.3833 29.6167 16.8567 28.935 15.505L28.6967 15.0617L28.6434 14.97L28.6267 14.94C27.8479 13.6162 26.776 12.4884 25.4934 11.6433L24.9384 11.3017C24.0726 10.8091 23.1377 10.4495 22.165 10.235L21.6667 10.1383Z" fill="black"/>
</g>
</g>
<defs>
<clipPath id="clip0_255_21">
<rect width="40" height="40" fill="white"/>
</clipPath>
</defs>
</svg>
