<svg width="94" height="94" viewBox="0 0 94 94" fill="none" xmlns="http://www.w3.org/2000/svg">
<g id="mingcute:add-line" clip-path="url(#clip0_276_7)">
<g id="Group">
<g id="Vector" filter="url(#filter0_d_276_7)">
<path d="M43.0833 78.3333C43.0833 79.3721 43.496 80.3683 44.2305 81.1028C44.965 81.8374 45.9612 82.25 47 82.25C48.0388 82.25 49.035 81.8374 49.7695 81.1028C50.504 80.3683 50.9167 79.3721 50.9167 78.3333V50.9167H78.3333C79.3721 50.9167 80.3683 50.504 81.1028 49.7695C81.8374 49.035 82.25 48.0388 82.25 47C82.25 45.9612 81.8374 44.965 81.1028 44.2305C80.3683 43.496 79.3721 43.0833 78.3333 43.0833H50.9167V15.6667C50.9167 14.6279 50.504 13.6317 49.7695 12.8972C49.035 12.1626 48.0388 11.75 47 11.75C45.9612 11.75 44.965 12.1626 44.2305 12.8972C43.496 13.6317 43.0833 14.6279 43.0833 15.6667V43.0833H15.6667C14.6279 43.0833 13.6317 43.496 12.8972 44.2305C12.1626 44.965 11.75 45.9612 11.75 47C11.75 48.0388 12.1626 49.035 12.8972 49.7695C13.6317 50.504 14.6279 50.9167 15.6667 50.9167H43.0833V78.3333Z" fill="url(#paint0_linear_276_7)"/>
</g>
</g>
</g>
<defs>
<filter id="filter0_d_276_7" x="7.75" y="11.75" width="78.5" height="78.5" filterUnits="userSpaceOnUse" color-interpolation-filters="sRGB">
<feFlood flood-opacity="0" result="BackgroundImageFix"/>
<feColorMatrix in="SourceAlpha" type="matrix" values="0 0 0 0 0 0 0 0 0 0 0 0 0 0 0 0 0 0 127 0" result="hardAlpha"/>
<feOffset dy="4"/>
<feGaussianBlur stdDeviation="2"/>
<feComposite in2="hardAlpha" operator="out"/>
<feColorMatrix type="matrix" values="0 0 0 0 0 0 0 0 0 0 0 0 0 0 0 0 0 0 0.25 0"/>
<feBlend mode="normal" in2="BackgroundImageFix" result="effect1_dropShadow_276_7"/>
<feBlend mode="normal" in="SourceGraphic" in2="effect1_dropShadow_276_7" result="shape"/>
</filter>
<linearGradient id="paint0_linear_276_7" x1="47" y1="11.75" x2="47" y2="82.25" gradientUnits="userSpaceOnUse">
<stop stop-color="#FDFC47"/>
<stop offset="1" stop-color="#24FE41"/>
</linearGradient>
<clipPath id="clip0_276_7">
<rect width="94" height="94" fill="white"/>
</clipPath>
</defs>
</svg>
