<svg width="48" height="48" viewBox="0 0 48 48" fill="none" xmlns="http://www.w3.org/2000/svg">
<g id="ic:sharp-attach-money">
<path id="Vector" d="M23.6 21.8C19.06 20.62 17.6 19.4 17.6 17.5C17.6 15.32 19.62 13.8 23 13.8C26.56 13.8 27.88 15.5 28 18H32.42C32.28 14.56 30.18 11.4 26 10.38V6H20V10.32C16.12 11.16 13 13.68 13 17.54C13 22.16 16.82 24.46 22.4 25.8C27.4 27 28.4 28.76 28.4 30.62C28.4 32 27.42 34.2 23 34.2C18.88 34.2 17.26 32.36 17.04 30H12.64C12.88 34.38 16.16 36.84 20 37.66V42H26V37.7C29.9 36.96 33 34.7 33 30.6C33 24.92 28.14 22.98 23.6 21.8Z" fill="black"/>
</g>
</svg>
