<svg width="95" height="95" viewBox="0 0 95 95" fill="none" xmlns="http://www.w3.org/2000/svg">
<g id="twemoji:calendar" clip-path="url(#clip0_3_98)">
<path id="Vector" d="M95 84.4445C95 87.244 93.8879 89.9288 91.9083 91.9084C89.9288 93.8879 87.244 95 84.4444 95H10.5556C7.75605 95 5.0712 93.8879 3.09165 91.9084C1.1121 89.9288 0 87.244 0 84.4445V23.75C0 20.9505 1.1121 18.2657 3.09165 16.2861C5.0712 14.3066 7.75605 13.1945 10.5556 13.1945H84.4444C87.244 13.1945 89.9288 14.3066 91.9083 16.2861C93.8879 18.2657 95 20.9505 95 23.75V84.4445Z" fill="#E0E7EC"/>
<path id="Vector_2" d="M89.7222 0H81.0746C81.5285 0.778472 81.8056 1.67306 81.8056 2.63889C81.8056 4.03864 81.2495 5.38107 80.2597 6.37084C79.27 7.36062 77.9275 7.91667 76.5278 7.91667C75.128 7.91667 73.7856 7.36062 72.7958 6.37084C71.806 5.38107 71.25 4.03864 71.25 2.63889C71.25 1.67306 71.5271 0.778472 71.981 0H23.019C23.4729 0.778472 23.75 1.67306 23.75 2.63889C23.75 4.03864 23.1939 5.38107 22.2042 6.37084C21.2144 7.36062 19.872 7.91667 18.4722 7.91667C17.0725 7.91667 15.73 7.36062 14.7403 6.37084C13.7505 5.38107 13.1944 4.03864 13.1944 2.63889C13.1944 1.67306 13.4715 0.778472 13.9254 0H5.27778C3.87802 0 2.5356 0.55605 1.54583 1.54583C0.55605 2.5356 0 3.87802 0 5.27778L0 34.3056H95V5.27778C95 3.87802 94.444 2.5356 93.4542 1.54583C92.4644 0.55605 91.122 0 89.7222 0Z" fill="#DD2F45"/>
<path id="Vector_3" d="M84.4443 26.3889C84.4443 27.0888 84.7224 27.76 85.2172 28.2549C85.7121 28.7498 86.3833 29.0278 87.0832 29.0278C87.7831 29.0278 88.4543 28.7498 88.9492 28.2549C89.4441 27.76 89.7221 27.0888 89.7221 26.3889C89.7221 25.689 89.4441 25.0178 88.9492 24.5229C88.4543 24.028 87.7831 23.75 87.0832 23.75C86.3833 23.75 85.7121 24.028 85.2172 24.5229C84.7224 25.0178 84.4443 25.689 84.4443 26.3889ZM84.4443 18.4722C84.4443 19.1721 84.7224 19.8433 85.2172 20.3382C85.7121 20.8331 86.3833 21.1111 87.0832 21.1111C87.7831 21.1111 88.4543 20.8331 88.9492 20.3382C89.4441 19.8433 89.7221 19.1721 89.7221 18.4722C89.7221 17.7724 89.4441 17.1011 88.9492 16.6063C88.4543 16.1114 87.7831 15.8333 87.0832 15.8333C86.3833 15.8333 85.7121 16.1114 85.2172 16.6063C84.7224 17.1011 84.4443 17.7724 84.4443 18.4722ZM76.5277 26.3889C76.5277 27.0888 76.8057 27.76 77.3006 28.2549C77.7955 28.7498 78.4667 29.0278 79.1666 29.0278C79.8664 29.0278 80.5376 28.7498 81.0325 28.2549C81.5274 27.76 81.8054 27.0888 81.8054 26.3889C81.8054 25.689 81.5274 25.0178 81.0325 24.5229C80.5376 24.028 79.8664 23.75 79.1666 23.75C78.4667 23.75 77.7955 24.028 77.3006 24.5229C76.8057 25.0178 76.5277 25.689 76.5277 26.3889ZM76.5277 18.4722C76.5277 19.1721 76.8057 19.8433 77.3006 20.3382C77.7955 20.8331 78.4667 21.1111 79.1666 21.1111C79.8664 21.1111 80.5376 20.8331 81.0325 20.3382C81.5274 19.8433 81.8054 19.1721 81.8054 18.4722C81.8054 17.7724 81.5274 17.1011 81.0325 16.6063C80.5376 16.1114 79.8664 15.8333 79.1666 15.8333C78.4667 15.8333 77.7955 16.1114 77.3006 16.6063C76.8057 17.1011 76.5277 17.7724 76.5277 18.4722ZM68.611 26.3889C68.611 27.0888 68.889 27.76 69.3839 28.2549C69.8788 28.7498 70.55 29.0278 71.2499 29.0278C71.9498 29.0278 72.621 28.7498 73.1159 28.2549C73.6108 27.76 73.8888 27.0888 73.8888 26.3889C73.8888 25.689 73.6108 25.0178 73.1159 24.5229C72.621 24.028 71.9498 23.75 71.2499 23.75C70.55 23.75 69.8788 24.028 69.3839 24.5229C68.889 25.0178 68.611 25.689 68.611 26.3889ZM68.611 18.4722C68.611 19.1721 68.889 19.8433 69.3839 20.3382C69.8788 20.8331 70.55 21.1111 71.2499 21.1111C71.9498 21.1111 72.621 20.8331 73.1159 20.3382C73.6108 19.8433 73.8888 19.1721 73.8888 18.4722C73.8888 17.7724 73.6108 17.1011 73.1159 16.6063C72.621 16.1114 71.9498 15.8333 71.2499 15.8333C70.55 15.8333 69.8788 16.1114 69.3839 16.6063C68.889 17.1011 68.611 17.7724 68.611 18.4722ZM60.6943 18.4722C60.6943 19.1721 60.9724 19.8433 61.4672 20.3382C61.9621 20.8331 62.6333 21.1111 63.3332 21.1111C64.0331 21.1111 64.7043 20.8331 65.1992 20.3382C65.6941 19.8433 65.9721 19.1721 65.9721 18.4722C65.9721 17.7724 65.6941 17.1011 65.1992 16.6063C64.7043 16.1114 64.0331 15.8333 63.3332 15.8333C62.6333 15.8333 61.9621 16.1114 61.4672 16.6063C60.9724 17.1011 60.6943 17.7724 60.6943 18.4722ZM60.6943 26.3889C60.6943 27.0888 60.9724 27.76 61.4672 28.2549C61.9621 28.7498 62.6333 29.0278 63.3332 29.0278C64.0331 29.0278 64.7043 28.7498 65.1992 28.2549C65.6941 27.76 65.9721 27.0888 65.9721 26.3889C65.9721 25.689 65.6941 25.0178 65.1992 24.5229C64.7043 24.028 64.0331 23.75 63.3332 23.75C62.6333 23.75 61.9621 24.028 61.4672 24.5229C60.9724 25.0178 60.6943 25.689 60.6943 26.3889Z" fill="#F4ABBA"/>
</g>
<defs>
<clipPath id="clip0_3_98">
<rect width="95" height="95" fill="white"/>
</clipPath>
</defs>
</svg>
